<svg width="46" height="46" fill="none" stroke="#ffffff" stroke-linecap="round" stroke-linejoin="round" stroke-width="1.5" viewBox="0 0 24 24" xmlns="http://www.w3.org/2000/svg">
  <path d="M2 21h20"></path>
  <path d="M7 13H5a1 1 0 0 0-1 1v6a1 1 0 0 0 1 1h2a1 1 0 0 0 1-1v-6a1 1 0 0 0-1-1Z"></path>
  <path d="M6 17h.5"></path>
  <path d="M19 2H9a1 1 0 0 0-1 1v17a1 1 0 0 0 1 1h10a1 1 0 0 0 1-1V3a1 1 0 0 0-1-1Z"></path>
  <path fill="#ffffff" stroke="none" d="M13 5h-2v2h2V5Z"></path>
  <path fill="#ffffff" stroke="none" d="M17 5h-2v2h2V5Z"></path>
  <path fill="#ffffff" stroke="none" d="M13 8.5h-2v2h2v-2Z"></path>
  <path fill="#ffffff" stroke="none" d="M17 8.5h-2v2h2v-2Z"></path>
  <path fill="#ffffff" stroke="none" d="M17 12h-2v2h2v-2Z"></path>
  <path fill="#ffffff" stroke="none" d="M17 15.5h-2v2h2v-2Z"></path>
</svg>