<svg width="46" height="46" fill="#ffffff" viewBox="0 0 24 24" xmlns="http://www.w3.org/2000/svg">
  <path d="m19.684 5.823-9-3.272A1.998 1.998 0 0 0 8 4.431v6.128a3.954 3.954 0 0 0-2-.557c-2.206 0-4 1.794-4 4s1.794 4 4 4 4-1.794 4-4V4.43l9 3.272v6.856a3.963 3.963 0 0 0-2-.556c-2.206 0-4 1.794-4 4s1.794 4 4 4 4-1.794 4-4v-10.3c0-.838-.529-1.594-1.316-1.879ZM6 16.003c-1.103 0-2-.898-2-2 0-1.104.897-2 2-2s2 .896 2 2c0 1.102-.897 2-2 2Zm11 4c-1.103 0-2-.898-2-2 0-1.104.897-2 2-2s2 .896 2 2c0 1.102-.897 2-2 2Z"></path>
</svg>